<svg version="1.1" id="Layer_1" xmlns="http://www.w3.org/2000/svg" xmlns:xlink="http://www.w3.org/1999/xlink" x="0px" y="0px"
	 width="100%" viewBox="0 0 180 180" enable-background="new 0 0 180 180" xml:space="preserve">
<path fill="#4C6971" opacity="1.000000" stroke="none" 
	d="
M1.000000,68.000000 
	C1.000000,45.333344 1.000000,23.166685 1.000000,1.000021 
	C60.999966,1.000014 120.999931,1.000014 180.999908,1.000007 
	C180.999939,60.999939 180.999939,120.999878 180.999969,180.999863 
	C121.000084,180.999908 61.000168,180.999908 1.000127,180.999954 
	C1.000000,143.500000 1.000000,106.000000 1.000000,68.000000 
M165.977631,81.329903 
	C165.663788,80.852844 165.349960,80.375786 164.721283,79.274078 
	C158.045395,72.706688 149.356323,75.370956 141.506729,74.304184 
	C136.212723,73.584717 130.416031,74.529686 125.623901,72.694298 
	C120.275764,70.645966 113.173599,69.073006 112.958504,60.100220 
	C113.490021,56.703815 114.192955,53.322197 114.487595,49.905365 
	C114.659340,47.913712 114.177475,45.865696 113.994637,43.000332 
	C114.223083,41.895584 114.629433,40.794121 114.649872,39.685539 
	C114.749870,34.259754 116.683197,28.507238 111.999313,23.105019 
	C112.201263,19.434706 110.221664,17.265936 107.037193,15.975739 
	C107.037193,15.975739 107.095238,15.957349 107.189888,15.371491 
	C106.812614,14.220541 106.435341,13.069592 105.686447,11.325941 
	C97.620697,5.690423 89.377075,3.669599 80.175400,10.515673 
	C77.071442,15.299059 77.517410,20.150131 79.987511,25.785400 
	C80.327141,26.916180 80.666771,28.046959 81.041595,29.663109 
	C81.041595,29.663109 81.178970,30.129963 81.063187,30.821478 
	C81.102875,31.518639 81.142563,32.215797 81.071861,33.587002 
	C81.445763,34.381252 81.819656,35.175503 82.070267,36.620117 
	C82.107803,37.056789 82.145348,37.493462 82.049477,38.845444 
	C81.294197,43.907646 80.538918,48.969849 79.228172,54.443432 
	C78.802063,55.489296 78.607010,56.730373 77.913948,57.550701 
	C71.313339,65.363380 64.628304,73.104736 57.378021,81.166420 
	C56.590698,82.170654 55.803379,83.174889 54.136230,84.057220 
	C49.032166,83.691521 43.928101,83.325821 38.600052,82.315918 
	C37.370319,82.525719 36.140591,82.735527 34.070900,82.986534 
	C29.376245,83.130074 23.653601,80.758148 21.309679,88.225609 
	C20.605608,89.143784 19.901537,90.061958 18.898981,91.568413 
	C18.571739,92.353722 18.244497,93.139023 17.296482,94.350746 
	C15.919886,102.234001 14.543290,110.117264 13.037253,118.927658 
	C13.415029,124.941628 13.792805,130.955597 14.078131,137.676361 
	C14.442303,138.788330 14.806475,139.900284 15.303610,141.721069 
	C16.260788,144.158691 17.217968,146.596313 18.254858,149.654831 
	C18.567776,150.193146 18.880692,150.731445 19.412928,151.833328 
	C21.275276,153.628052 23.137627,155.422791 25.282221,157.780807 
	C26.852432,158.803970 28.422644,159.827148 30.704901,161.261993 
	C33.133053,161.453415 35.654320,162.162521 37.973026,161.745453 
	C47.340176,160.060577 56.644897,158.028625 66.303917,156.683578 
	C68.166313,158.136688 70.028702,159.589813 72.256432,161.568298 
	C73.475319,162.327255 74.694214,163.086212 76.429688,164.061401 
	C76.916245,164.316879 77.402802,164.572342 78.568794,165.157516 
	C89.768013,170.451126 101.564514,172.591553 114.681152,172.009995 
	C124.459778,176.704987 134.811768,175.305069 144.942535,174.251144 
	C148.048370,173.928055 150.858444,170.762009 154.212173,168.255722 
	C157.458359,163.517532 156.274948,159.144028 153.062958,154.317764 
	C153.073700,153.906464 153.084457,153.495163 153.863831,153.015732 
	C159.924561,152.143600 163.459213,149.231049 165.197815,143.306061 
	C164.829529,140.515320 164.461243,137.724564 163.986862,134.256592 
	C162.658417,132.751892 161.329956,131.247177 160.034607,129.112488 
	C160.130920,128.705276 160.227249,128.298050 161.026840,127.939728 
	C165.741058,126.280769 169.350891,123.481277 169.955566,118.194221 
	C170.720169,111.508560 168.756424,106.072151 161.598694,102.819199 
	C161.410828,102.248871 161.222961,101.678535 161.745590,100.994789 
	C168.516418,98.057884 169.675766,92.470497 168.726517,85.326187 
	C167.839890,84.195732 166.953278,83.065269 165.977631,81.329903 
z"/>
<path fill="#FFD765" opacity="1.000000" stroke="none" 
	d="
M13.166695,118.000519 
	C14.543290,110.117264 15.919886,102.234001 17.801804,94.342529 
	C22.327837,93.890007 26.345102,93.411179 30.370037,93.009117 
	C37.127728,92.334076 43.890305,91.707916 50.787663,91.269791 
	C51.654648,91.698532 52.384800,91.918663 53.418976,91.986679 
	C58.503460,87.573410 63.283920,83.312271 68.295868,78.839752 
	C69.699539,77.437660 70.871719,76.246948 72.340424,74.916733 
	C73.450966,73.565903 74.264984,72.354584 75.256760,70.917282 
	C75.955963,70.130753 76.477402,69.570183 77.281242,68.852982 
	C78.364975,67.456894 79.166306,66.217438 80.121323,64.746628 
	C80.522514,64.018890 80.770020,63.522514 81.323151,62.875473 
	C82.474716,61.160477 83.320663,59.596138 84.432632,57.850204 
	C85.387642,54.978092 86.076637,52.287579 86.756668,49.331203 
	C86.792511,48.713943 86.837311,48.362537 87.080978,47.910267 
	C87.517349,47.205189 87.754860,46.600979 87.987160,45.585861 
	C87.917381,44.075184 87.852821,42.975410 87.797287,41.479340 
	C87.803925,39.762001 87.801521,38.440952 87.846146,36.707062 
	C87.931961,35.194481 87.970741,34.094746 88.127701,32.724518 
	C87.852242,31.301144 87.458595,30.148268 87.026611,28.673702 
	C86.947502,27.922003 86.906723,27.491991 86.798798,26.787977 
	C86.489464,26.006079 86.247284,25.498184 85.999535,24.556473 
	C85.931679,22.100515 85.869392,20.078373 85.859711,17.719744 
	C85.959518,16.932352 86.006729,16.481449 86.352982,15.863495 
	C92.156868,12.056866 94.125938,12.445778 97.904800,17.854279 
	C99.584129,20.257830 101.321800,22.620621 103.118912,25.371155 
	C103.462425,27.495602 103.720024,29.250811 103.826080,31.373095 
	C102.864273,36.724266 101.846809,41.688206 101.358864,46.703659 
	C101.193481,48.403496 102.365959,50.233490 102.942032,52.440613 
	C102.938911,54.912571 102.920830,56.947926 102.633682,59.207928 
	C99.341736,63.278316 99.912270,67.479836 101.064346,71.784264 
	C102.254814,76.232109 103.150459,81.010529 99.599525,84.577965 
	C91.562752,92.652084 86.432518,102.441811 81.660759,112.559578 
	C77.170403,122.080681 69.379982,126.649338 58.954315,126.956894 
	C55.963081,127.045128 52.818375,126.664650 50.010921,127.451416 
	C35.826309,131.426468 23.774927,127.668625 13.166695,118.000519 
z"/>
<path fill="#FBC333" opacity="1.000000" stroke="none" 
	d="
M19.193609,151.269760 
	C18.880692,150.731445 18.567776,150.193146 18.466900,149.117920 
	C29.765400,144.762329 40.828960,140.874023 51.966351,137.210159 
	C53.411232,136.734848 55.277515,137.236313 56.879951,137.593399 
	C67.386833,139.934738 77.873260,142.367752 88.371033,144.750259 
	C89.666252,145.044235 90.981796,145.345444 92.300636,145.420776 
	C96.539177,145.662872 98.531326,143.268341 97.297493,139.135818 
	C96.542328,136.606522 95.448509,134.133591 94.189171,131.807266 
	C88.384247,121.084053 90.984283,110.863045 96.033714,100.858894 
	C96.683334,99.571823 98.539154,98.893570 99.866318,98.335434 
	C99.891006,99.804100 99.885597,100.870636 99.592079,102.132568 
	C98.353722,104.364258 97.041496,106.311226 96.513397,108.451668 
	C93.611794,120.212181 97.827827,130.361053 104.015038,140.454346 
	C103.991776,143.593124 103.968719,146.283234 103.593475,149.104172 
	C98.895126,149.450851 94.398430,150.471329 90.238304,149.692963 
	C84.086258,148.541885 78.243256,145.827393 72.133392,144.330902 
	C68.215309,143.371262 64.053909,143.405014 59.638985,143.007736 
	C58.792343,143.058441 58.308304,143.094864 57.609661,143.009628 
	C57.016224,142.579041 56.637390,142.270111 56.219765,141.720093 
	C53.678780,137.556625 51.407898,140.931213 49.040367,141.693283 
	C39.094433,144.894699 29.143021,148.079132 19.193609,151.269760 
z"/>
<path fill="#FECB3E" opacity="1.000000" stroke="none" 
	d="
M99.836212,97.933296 
	C98.539154,98.893570 96.683334,99.571823 96.033714,100.858894 
	C90.984283,110.863045 88.384247,121.084053 94.189171,131.807266 
	C95.448509,134.133591 96.542328,136.606522 97.297493,139.135818 
	C98.531326,143.268341 96.539177,145.662872 92.300636,145.420776 
	C90.981796,145.345444 89.666252,145.044235 88.371033,144.750259 
	C77.873260,142.367752 67.386833,139.934738 56.879951,137.593399 
	C55.277515,137.236313 53.411232,136.734848 51.966351,137.210159 
	C40.828960,140.874023 29.765400,144.762329 18.427044,148.807480 
	C17.217968,146.596313 16.260788,144.158691 15.441509,141.230347 
	C19.962685,140.145844 24.368465,139.682541 28.724566,138.931198 
	C37.836693,137.359512 46.922634,135.635986 56.350742,133.977509 
	C57.124722,133.980469 57.567291,133.980728 58.389614,134.139389 
	C65.196114,134.755463 71.637611,135.066238 78.045662,135.710037 
	C85.175819,136.426392 87.874939,133.909546 87.620415,126.808571 
	C87.467354,122.538399 87.827385,118.249840 87.963181,113.640335 
	C87.974052,112.871201 87.978569,112.431267 88.168518,111.688385 
	C89.900330,107.254128 91.446709,103.122826 93.140671,98.754761 
	C93.532173,98.016838 93.776093,97.515694 94.331482,96.898613 
	C96.394669,95.846169 98.146362,94.909653 100.026703,94.233093 
	C100.649376,95.061859 101.143402,95.630669 101.627472,96.462341 
	C101.614403,97.075111 101.611290,97.425003 101.312241,97.780457 
	C100.622948,97.835114 100.229576,97.884201 99.836212,97.933296 
z"/>
<path fill="#FFD55A" opacity="1.000000" stroke="none" 
	d="
M94.020004,97.014542 
	C93.776093,97.515694 93.532173,98.016838 92.849770,98.923470 
	C90.933136,102.216698 89.454987,105.104439 87.687088,108.172928 
	C86.598717,110.236481 85.800102,112.119278 84.998352,114.334152 
	C84.991257,115.109009 84.987305,115.551781 84.709427,116.188248 
	C83.841965,117.169365 83.038040,117.873573 82.688339,118.757477 
	C80.016937,125.509811 74.765564,128.822723 67.882874,129.823166 
	C63.944534,130.395615 59.956238,130.624359 55.592785,131.008942 
	C54.134731,131.012070 53.074326,131.014099 51.582668,131.026840 
	C40.286312,131.946884 29.407061,134.101028 18.806192,129.133041 
	C15.316223,127.497505 15.193182,130.623413 14.979749,133.342560 
	C14.696104,134.778915 14.433342,135.874237 14.170580,136.969574 
	C13.792805,130.955597 13.415029,124.941628 13.101974,118.464088 
	C23.774927,127.668625 35.826309,131.426468 50.010921,127.451416 
	C52.818375,126.664650 55.963081,127.045128 58.954315,126.956894 
	C69.379982,126.649338 77.170403,122.080681 81.660759,112.559578 
	C86.432518,102.441811 91.562752,92.652084 99.599525,84.577965 
	C103.150459,81.010529 102.254814,76.232109 101.064346,71.784264 
	C99.912270,67.479836 99.341736,63.278316 102.799507,59.516998 
	C103.476471,60.733368 103.718544,61.865322 103.820770,63.332565 
	C101.885300,70.305031 106.764275,73.944717 109.961052,78.440033 
	C107.506943,81.432915 105.309891,84.210175 102.972458,87.182068 
	C102.660469,87.646507 102.484756,87.913605 101.979836,88.285057 
	C99.109825,91.266258 96.564911,94.140404 94.020004,97.014542 
z"/>
<path fill="#F3B522" opacity="1.000000" stroke="none" 
	d="
M160.001511,129.742493 
	C161.329956,131.247177 162.658417,132.751892 163.880951,134.904663 
	C163.509140,137.697510 163.243210,139.842270 162.846054,142.295746 
	C160.174133,144.437744 157.633438,146.271042 154.814728,148.183807 
	C154.021408,148.520218 153.506088,148.777161 152.636993,149.062408 
	C151.574554,149.130707 150.865906,149.170715 149.790527,149.211334 
	C148.255035,149.509659 147.086288,149.807358 145.517136,150.108078 
	C143.793198,150.132156 142.469666,150.153198 140.688049,150.144806 
	C136.416031,149.822662 132.602081,149.529968 128.443329,149.207275 
	C127.411156,149.095856 126.723785,149.014404 125.887939,148.621613 
	C123.273582,144.999557 120.474854,143.786133 116.661392,146.916428 
	C115.903847,146.906708 115.470963,146.901688 114.859848,146.647095 
	C112.830666,145.515442 110.979713,144.633377 108.972610,143.399689 
	C108.563499,140.049805 108.310532,137.051544 108.348740,133.979370 
	C109.441742,133.313477 110.243568,132.721481 111.396744,132.062500 
	C113.581909,131.140244 115.415726,130.284973 117.502342,129.423004 
	C118.092316,129.417664 118.429489,129.419006 119.032082,129.632751 
	C121.551704,129.946564 123.805916,130.047958 126.505577,130.132309 
	C129.347214,130.221222 131.743408,130.327194 133.809387,130.563660 
	C129.801437,131.558838 126.276001,132.586029 126.079269,137.336777 
	C125.898186,141.709518 127.362373,146.029724 131.505051,147.015305 
	C139.960815,149.026978 148.801956,149.222946 156.423035,144.233505 
	C158.406891,142.934708 159.740417,138.624847 159.220169,136.150543 
	C158.795898,134.132675 155.323761,132.458206 152.892715,131.262238 
	C151.218414,130.438553 149.013916,130.692627 147.498871,130.370056 
	C151.968094,130.097580 155.984802,129.920029 160.001511,129.742493 
z"/>
<path fill="#FBC333" opacity="1.000000" stroke="none" 
	d="
M103.960625,62.997276 
	C103.718544,61.865322 103.476471,60.733368 103.068573,59.292343 
	C102.920830,56.947926 102.938911,54.912571 102.978416,52.032837 
	C103.056656,49.823967 103.113464,48.459473 103.394753,46.925438 
	C104.057816,46.152832 104.496407,45.549763 104.935806,44.619663 
	C104.942368,43.856361 104.948105,43.420097 105.180573,42.711658 
	C112.166695,31.161810 106.983368,14.697343 94.494919,9.106415 
	C92.079285,9.090734 90.087814,9.093054 87.770569,9.236134 
	C83.584099,11.644538 82.968513,14.524502 85.807106,18.056231 
	C85.869392,20.078373 85.931679,22.100515 85.951088,24.758133 
	C86.227455,25.949732 86.546700,26.505857 86.865952,27.061981 
	C86.906723,27.491991 86.947502,27.922003 86.901070,28.991117 
	C86.636436,30.740231 86.459007,31.850237 85.977356,32.983036 
	C85.470322,33.020958 85.267502,33.036087 84.802704,32.954346 
	C83.421219,32.875965 82.301735,32.894463 81.182251,32.912960 
	C81.142563,32.215797 81.102875,31.518639 81.415504,30.373013 
	C84.574837,23.148247 80.522713,16.735228 80.717712,10.097268 
	C89.377075,3.669599 97.620697,5.690423 105.697449,11.840417 
	C106.170715,13.555711 106.632980,14.756529 107.095238,15.957348 
	C107.095238,15.957349 107.037193,15.975739 107.089447,16.321260 
	C108.675255,19.771049 110.208809,22.875317 111.781265,26.379036 
	C111.890739,27.846073 111.961311,28.913664 111.980942,30.174374 
	C112.200455,30.907959 112.470909,31.448425 112.746323,32.366409 
	C112.755905,33.499001 112.760536,34.254078 112.608978,35.124397 
	C112.304382,35.828045 112.155968,36.416439 111.964340,37.382889 
	C111.278191,40.173813 110.635246,42.586681 109.710403,45.198402 
	C106.726143,49.336155 104.225960,53.298927 107.954147,58.370224 
	C107.981667,59.494385 107.995888,60.243931 107.925491,61.272331 
	C108.545410,63.037670 109.249954,64.524155 110.219559,66.201790 
	C111.662453,67.914024 112.840279,69.435104 114.121933,71.267715 
	C115.143257,73.045380 116.060760,74.511497 116.682503,75.989876 
	C115.992249,75.994514 115.597763,75.986900 115.020309,76.124985 
	C114.597092,76.465065 114.365501,76.669273 113.799286,76.926346 
	C112.996429,77.009529 112.536880,77.049690 111.954102,76.759964 
	C109.207466,71.952477 106.584045,67.474876 103.960625,62.997276 
z"/>
<path fill="#ECAA16" opacity="1.000000" stroke="none" 
	d="
M108.010109,60.993473 
	C107.995888,60.243931 107.981667,59.494385 107.973534,57.934994 
	C108.650513,53.083279 109.321404,49.041412 109.992294,44.999546 
	C110.635246,42.586681 111.278191,40.173813 112.095215,37.146820 
	C112.434578,36.024845 112.599869,35.516998 112.765167,35.009151 
	C112.760536,34.254078 112.755905,33.499001 112.697807,32.105282 
	C112.440186,30.971510 112.236031,30.476381 112.031876,29.981255 
	C111.961311,28.913664 111.890739,27.846073 111.834923,26.028589 
	C111.908455,24.808199 111.967232,24.337704 112.026001,23.867207 
	C116.683197,28.507238 114.749870,34.259754 114.649872,39.685539 
	C114.629433,40.794121 114.223083,41.895584 113.764084,43.716492 
	C112.694717,49.870983 111.855888,55.309311 111.017067,60.747643 
	C111.622917,60.821289 112.228767,60.894936 112.834618,60.968586 
	C113.173599,69.073006 120.275764,70.645966 125.623901,72.694298 
	C130.416031,74.529686 136.212723,73.584717 141.506729,74.304184 
	C149.356323,75.370956 158.045395,72.706688 164.859650,80.005417 
	C164.969482,81.295082 164.940948,81.853394 164.656769,82.356644 
	C164.229218,82.270638 164.057343,82.239708 163.721436,81.899734 
	C159.192017,76.038895 153.074188,76.097832 146.469696,76.332779 
	C142.677246,76.807602 139.300674,77.333130 135.531342,77.903755 
	C132.763474,78.256523 130.388382,78.564194 127.710739,78.806641 
	C126.999474,78.684837 126.590744,78.628250 125.937653,78.336685 
	C118.601189,76.153618 108.730682,80.548409 105.547279,86.928177 
	C104.503860,86.955582 103.808350,86.971512 103.112846,86.987442 
	C105.309891,84.210175 107.506943,81.432915 110.211258,78.330856 
	C111.171455,77.700653 111.624390,77.395248 112.077324,77.089844 
	C112.536880,77.049690 112.996429,77.009529 113.990013,76.796585 
	C114.768356,76.427834 114.994766,76.212990 115.203270,75.979279 
	C115.597763,75.986900 115.992249,75.994514 116.899803,75.850281 
	C118.900986,72.242355 115.868996,72.022011 114.018105,70.956184 
	C112.840279,69.435104 111.662453,67.914024 110.148529,65.868492 
	C109.211655,63.893852 108.610878,62.443665 108.010109,60.993473 
z"/>
<path fill="#F0B01B" opacity="1.000000" stroke="none" 
	d="
M19.303268,151.551544 
	C29.143021,148.079132 39.094433,144.894699 49.040367,141.693283 
	C51.407898,140.931213 53.678780,137.556625 56.007576,142.009705 
	C53.683823,147.608871 49.145317,148.718338 44.387043,150.108353 
	C37.794975,152.034027 31.450480,154.807220 24.999977,157.217529 
	C23.137627,155.422791 21.275276,153.628052 19.303268,151.551544 
z"/>
<path fill="#D78909" opacity="1.000000" stroke="none" 
	d="
M25.141100,157.499176 
	C31.450480,154.807220 37.794975,152.034027 44.387043,150.108353 
	C49.145317,148.718338 53.683823,147.608871 56.046371,142.250793 
	C56.637390,142.270111 57.016224,142.579041 57.712620,143.325317 
	C58.373943,144.816223 58.717701,145.869751 58.870850,147.222198 
	C57.538570,151.346695 54.535843,152.690781 51.015057,153.776550 
	C43.952209,155.954697 36.994156,158.472641 29.992851,160.850327 
	C28.422644,159.827148 26.852432,158.803970 25.141100,157.499176 
z"/>
<path fill="#D08009" opacity="1.000000" stroke="none" 
	d="
M77.889351,164.827820 
	C77.402802,164.572342 76.916245,164.316879 76.262199,163.689606 
	C76.165482,159.839523 74.170776,160.177917 71.891090,161.042923 
	C70.028702,159.589813 68.166313,158.136688 66.045990,156.071594 
	C64.464043,153.361298 63.140030,151.262970 62.146347,149.201355 
	C63.645927,149.820129 64.815178,150.402222 66.170639,151.264648 
	C68.592239,153.011337 70.827637,154.477692 73.377914,156.042511 
	C74.733391,156.497314 75.773979,156.853607 77.011703,157.487457 
	C79.032150,158.824387 80.738136,160.401917 82.700684,160.846283 
	C88.647789,162.192810 94.669441,163.275085 100.708542,164.133133 
	C107.639053,165.117874 107.966408,164.701889 109.111847,158.060150 
	C109.357544,156.635483 110.053368,155.288452 110.819611,154.128815 
	C111.455864,154.664795 111.814339,154.977585 112.067818,155.660431 
	C111.676376,158.651443 111.389923,161.272385 111.091949,164.261688 
	C111.081978,165.360687 111.083542,166.091339 110.613998,166.851746 
	C101.167702,165.904419 92.199501,164.852402 83.211266,164.015549 
	C81.477539,163.854111 79.665352,164.535324 77.889351,164.827820 
z"/>
<path fill="#AD5A0E" opacity="1.000000" stroke="none" 
	d="
M61.816017,149.164642 
	C63.140030,151.262970 64.464043,153.361298 65.880356,155.792206 
	C56.644897,158.028625 47.340176,160.060577 37.973026,161.745453 
	C35.654320,162.162521 33.133053,161.453415 30.348873,161.056152 
	C36.994156,158.472641 43.952209,155.954697 51.015057,153.776550 
	C54.535843,152.690781 57.538570,151.346695 58.860840,147.233215 
	C59.041439,146.945343 59.041237,146.969070 59.159164,147.179550 
	C59.480469,147.651428 59.737225,147.840271 60.273479,148.101166 
	C60.938404,148.552094 61.377209,148.858368 61.816017,149.164642 
z"/>
<path fill="#E1980C" opacity="1.000000" stroke="none" 
	d="
M162.118347,103.161545 
	C168.756424,106.072151 170.720169,111.508560 169.955566,118.194221 
	C169.350891,123.481277 165.741058,126.280769 160.307709,127.812454 
	C155.026413,127.899239 150.464249,128.113297 145.504974,128.273071 
	C142.875900,128.152985 140.643967,128.087204 138.311127,128.196869 
	C137.879456,128.498962 137.670670,128.390610 137.218262,127.916672 
	C136.408859,127.527039 135.965088,127.267982 135.911407,126.768471 
	C140.034561,126.100716 143.767624,125.673416 147.968231,125.371872 
	C150.235382,125.585564 152.034943,125.673477 154.226074,125.761658 
	C165.074844,123.973839 170.153931,114.744942 164.583313,106.871735 
	C162.479477,106.480515 160.715408,106.254013 158.550079,106.014435 
	C156.812424,106.056229 155.476028,106.111099 153.707489,106.120140 
	C151.839737,106.036247 150.404175,105.998192 149.315613,105.781372 
	C153.814529,104.788925 157.966431,103.975235 162.118347,103.161545 
z"/>
<path fill="#AD5A0E" opacity="1.000000" stroke="none" 
	d="
M78.229073,164.992676 
	C79.665352,164.535324 81.477539,163.854111 83.211266,164.015549 
	C92.199501,164.852402 101.167702,165.904419 110.777557,167.116379 
	C112.234161,168.251862 113.056107,169.152420 113.872955,170.352875 
	C113.880798,171.052277 113.893738,171.451782 113.906677,171.851288 
	C101.564514,172.591553 89.768013,170.451126 78.229073,164.992676 
z"/>
<path fill="#FFD04A" opacity="1.000000" stroke="none" 
	d="
M14.124355,137.322968 
	C14.433342,135.874237 14.696104,134.778915 15.274583,133.564819 
	C27.750769,137.969467 39.596256,135.813049 51.343353,131.735855 
	C51.617157,131.640823 51.792599,131.262360 52.013924,131.016113 
	C53.074326,131.014099 54.134731,131.012070 55.596062,131.379959 
	C56.004436,132.491531 56.011883,133.233170 56.019333,133.974823 
	C46.922634,135.635986 37.836693,137.359512 28.724566,138.931198 
	C24.368465,139.682541 19.962685,140.145844 15.375027,140.875931 
	C14.806475,139.900284 14.442303,138.788330 14.124355,137.322968 
z"/>
<path fill="#DD920A" opacity="1.000000" stroke="none" 
	d="
M153.115341,154.933228 
	C156.274948,159.144028 157.458359,163.517532 153.619995,168.611237 
	C146.962494,170.224854 140.897186,171.482925 135.090271,172.507767 
	C137.692627,171.518860 140.153351,171.006287 142.352982,169.950012 
	C145.576202,168.402222 148.852753,166.764832 151.613922,164.551132 
	C152.770508,163.623856 153.481705,160.742523 152.881790,159.454605 
	C152.379852,158.377014 149.674454,158.325806 147.502823,157.825684 
	C144.131577,157.718369 141.202286,157.605469 138.212616,157.286011 
	C138.042175,156.656845 137.932159,156.234238 138.288818,155.705261 
	C143.542114,155.377014 148.328720,155.155121 153.115341,154.933228 
z"/>
<path fill="#FDC636" opacity="1.000000" stroke="none" 
	d="
M19.197468,90.980141 
	C19.901537,90.061958 20.605608,89.143784 21.997620,88.016724 
	C25.495249,87.538467 28.301016,87.214767 31.115486,87.011719 
	C36.067173,86.654488 41.024178,86.371002 46.375397,86.061508 
	C48.487568,87.056763 50.203297,88.047142 51.487694,89.037880 
	C40.436729,89.685547 29.817099,90.332848 19.197468,90.980141 
z"/>
<path fill="#F7BC29" opacity="1.000000" stroke="none" 
	d="
M45.978958,86.056641 
	C41.024178,86.371002 36.067173,86.654488 31.115486,87.011719 
	C28.301016,87.214767 25.495249,87.538467 22.268620,87.893982 
	C23.653601,80.758148 29.376245,83.130074 34.881577,82.977036 
	C36.736179,82.965073 37.780106,82.962601 38.824036,82.960129 
	C43.928101,83.325821 49.032166,83.691521 54.212029,84.251358 
	C51.518204,84.982544 48.748581,85.519592 45.978958,86.056641 
z"/>
<path fill="#D08009" opacity="1.000000" stroke="none" 
	d="
M134.831879,172.741013 
	C140.897186,171.482925 146.962494,170.224854 153.415878,168.932297 
	C150.858444,170.762009 148.048370,173.928055 144.942535,174.251144 
	C134.811768,175.305069 124.459778,176.704987 114.293915,171.930634 
	C113.893738,171.451782 113.880798,171.052277 114.264603,170.422760 
	C119.169449,171.049469 123.677559,171.906189 128.603546,172.760193 
	C130.958237,172.751984 132.895065,172.746506 134.831879,172.741013 
z"/>
<path fill="#EAA712" opacity="1.000000" stroke="none" 
	d="
M57.967529,80.866585 
	C64.628304,73.104736 71.313339,65.363380 77.913948,57.550701 
	C78.607010,56.730373 78.802063,55.489296 79.726486,54.395130 
	C80.504463,54.573166 80.784126,54.799507 81.093002,55.294716 
	C81.152168,55.741520 81.182121,55.919460 81.056168,56.370781 
	C80.318977,57.750919 79.737694,58.857674 78.997986,60.225388 
	C78.546478,61.242123 78.253395,61.997898 77.774826,62.961285 
	C77.376579,63.472267 77.163826,63.775642 76.722610,64.299042 
	C75.627403,65.936890 74.760666,67.354706 73.728729,68.966080 
	C73.363998,69.430389 73.164452,69.701149 72.821121,70.200096 
	C72.412109,70.895470 72.146881,71.362648 71.572815,71.960724 
	C69.483620,74.009163 67.703262,75.926712 65.695610,77.883438 
	C65.468315,77.922607 65.017418,78.019997 64.703293,78.114143 
	C63.311626,79.239754 62.234081,80.271217 60.930473,81.398636 
	C60.271965,81.712875 59.839520,81.931168 59.162010,81.941467 
	C58.600471,81.444504 58.284000,81.155548 57.967529,80.866585 
z"/>
<path fill="#FFCE45" opacity="1.000000" stroke="none" 
	d="
M19.048225,91.274277 
	C29.817099,90.332848 40.436729,89.685547 51.437607,89.368729 
	C51.749599,90.140808 51.680347,90.582405 51.372845,91.029953 
	C51.134594,91.035896 50.650826,91.061180 50.650826,91.061180 
	C43.890305,91.707916 37.127728,92.334076 30.370037,93.009117 
	C26.345102,93.411179 22.327837,93.890007 18.112190,94.129326 
	C18.244497,93.139023 18.571739,92.353722 19.048225,91.274277 
z"/>
<path fill="#D78909" opacity="1.000000" stroke="none" 
	d="
M168.853149,85.946976 
	C169.675766,92.470497 168.516418,98.057884 161.093170,100.935547 
	C158.099426,101.356140 155.770798,102.112686 153.412384,102.221115 
	C151.767181,102.296768 150.081146,101.484398 148.686737,100.943939 
	C149.977997,100.579353 150.995865,100.339531 152.221481,100.135941 
	C152.972076,99.800499 153.514923,99.428825 154.334564,98.918762 
	C155.388000,98.505066 156.164627,98.229752 157.205475,98.051407 
	C158.654877,97.422516 159.840073,96.696671 161.212051,95.930603 
	C161.398834,95.890381 161.775665,95.826996 162.126923,95.751549 
	C165.864014,94.441330 166.863174,91.835098 166.580902,88.186707 
	C166.563782,87.235077 166.565613,86.600151 166.948425,85.967789 
	C167.837311,85.962563 168.345230,85.954773 168.853149,85.946976 
z"/>
<path fill="#F3B522" opacity="1.000000" stroke="none" 
	d="
M81.063789,55.025848 
	C80.784126,54.799507 80.504463,54.573166 80.004211,54.189438 
	C80.538918,48.969849 81.294197,43.907646 82.271301,38.285431 
	C82.393265,37.140202 82.293404,36.554977 82.193550,35.969757 
	C81.819656,35.175503 81.445763,34.381252 81.127052,33.249981 
	C82.301735,32.894463 83.421219,32.875965 84.803307,33.337753 
	C85.104103,34.839119 85.142296,35.860203 85.161240,37.319740 
	C85.175308,39.219799 85.208626,40.681400 85.283463,42.465485 
	C85.769241,44.257999 86.213501,45.728031 86.709122,47.402634 
	C86.760498,47.607204 86.882111,48.011131 86.882111,48.011131 
	C86.837311,48.362537 86.792511,48.713943 86.518028,49.326828 
	C86.288345,49.588310 85.808189,49.603363 85.559326,49.613670 
	C83.894897,51.424603 82.479347,53.225224 81.063789,55.025848 
z"/>
<path fill="#DD920A" opacity="1.000000" stroke="none" 
	d="
M150.157257,149.210724 
	C150.865906,149.170715 151.574554,149.130707 152.842819,149.103790 
	C153.965866,148.779388 154.529312,148.441864 155.092743,148.104355 
	C157.633438,146.271042 160.174133,144.437744 163.036438,142.490845 
	C163.850922,142.909561 164.343796,143.441849 164.836670,143.974121 
	C163.459213,149.231049 159.924561,152.143600 153.065781,152.956665 
	C151.154297,152.705292 150.040878,152.512985 149.031036,152.063629 
	C149.475510,150.941299 149.816391,150.076004 150.157257,149.210724 
z"/>
<path fill="#EAA712" opacity="1.000000" stroke="none" 
	d="
M80.446556,10.306471 
	C80.522713,16.735228 84.574837,23.148247 81.473396,30.027256 
	C81.178970,30.129963 81.041595,29.663109 81.008087,29.054787 
	C80.615891,27.310345 80.257202,26.174221 79.898514,25.038097 
	C77.517410,20.150131 77.071442,15.299059 80.446556,10.306471 
z"/>
<path fill="#9F4D0F" opacity="1.000000" stroke="none" 
	d="
M148.927444,152.320679 
	C150.040878,152.512985 151.154297,152.705292 152.681473,152.990723 
	C153.084457,153.495163 153.073700,153.906464 153.089142,154.625488 
	C148.328720,155.155121 143.542114,155.377014 137.880981,155.622314 
	C135.900955,155.698868 134.795425,155.752029 133.334518,155.713577 
	C131.759674,155.517166 130.540222,155.412369 128.912689,155.192978 
	C127.665993,155.037170 126.827362,154.995972 125.634613,154.847931 
	C124.320122,154.509903 123.359749,154.278687 122.739441,153.761002 
	C125.097717,153.050598 127.115944,152.626678 129.576843,152.300735 
	C133.652451,152.536392 137.285400,152.674057 141.347748,152.887283 
	C143.217026,152.880753 144.656891,152.798676 146.455994,152.723846 
	C147.519287,152.594299 148.223373,152.457489 148.927444,152.320679 
z"/>
<path fill="#AD5A0E" opacity="1.000000" stroke="none" 
	d="
M148.413361,101.068687 
	C150.081146,101.484398 151.767181,102.296768 153.412384,102.221115 
	C155.770798,102.112686 158.099426,101.356140 160.737946,100.992249 
	C161.222961,101.678535 161.410828,102.248871 161.858521,102.990372 
	C157.966431,103.975235 153.814529,104.788925 148.881805,105.807236 
	C146.078171,105.931938 144.055328,105.852020 142.032806,105.496384 
	C142.029648,104.853447 142.026184,104.486206 142.364929,104.040222 
	C143.401093,103.854164 144.095078,103.746849 145.069458,103.625465 
	C146.073700,103.175461 146.797501,102.739525 147.783325,102.023033 
	C148.167999,101.517883 148.290680,101.293289 148.413361,101.068687 
z"/>
<path fill="#D78909" opacity="1.000000" stroke="none" 
	d="
M112.896561,60.534401 
	C112.228767,60.894936 111.622917,60.821289 111.017067,60.747643 
	C111.855888,55.309311 112.694717,49.870983 113.761612,44.137844 
	C114.177475,45.865696 114.659340,47.913712 114.487595,49.905365 
	C114.192955,53.322197 113.490021,56.703815 112.896561,60.534401 
z"/>
<path fill="#EDAB17" opacity="1.000000" stroke="none" 
	d="
M51.611099,91.024010 
	C51.680347,90.582405 51.749599,90.140808 51.868935,89.368362 
	C50.203297,88.047142 48.487568,87.056763 46.375397,86.061516 
	C48.748581,85.519592 51.518204,84.982544 54.651943,84.312302 
	C55.803379,83.174889 56.590698,82.170654 57.672775,81.016502 
	C58.284000,81.155548 58.600471,81.444504 58.990982,82.244560 
	C57.038860,85.495567 55.012703,88.235481 52.642750,90.989319 
	C52.069668,91.010162 51.840382,91.017090 51.611099,91.024010 
z"/>
<path fill="#AD5A0E" opacity="1.000000" stroke="none" 
	d="
M145.902100,128.327362 
	C150.464249,128.113297 155.026413,127.899239 159.956055,127.788010 
	C160.227249,128.298050 160.130920,128.705276 160.018066,129.427490 
	C155.984802,129.920029 151.968094,130.097580 147.226929,130.286987 
	C146.327698,130.224442 146.152908,130.150040 145.962494,129.638428 
	C145.931961,128.909943 145.917038,128.618652 145.902100,128.327362 
z"/>
<path fill="#F9BF2D" opacity="1.000000" stroke="none" 
	d="
M112.012657,23.486113 
	C111.967232,24.337704 111.908455,24.808199 111.796021,25.629139 
	C110.208809,22.875317 108.675255,19.771049 107.096634,16.291677 
	C110.221664,17.265936 112.201263,19.434706 112.012657,23.486113 
z"/>
<path fill="#EAA712" opacity="1.000000" stroke="none" 
	d="
M165.017242,143.640091 
	C164.343796,143.441849 163.850922,142.909561 163.167664,142.182159 
	C163.243210,139.842270 163.509140,137.697510 163.934006,135.243286 
	C164.461243,137.724564 164.829529,140.515320 165.017242,143.640091 
z"/>
<path fill="#AD5A0E" opacity="1.000000" stroke="none" 
	d="
M72.073761,161.305603 
	C74.170776,160.177917 76.165482,159.839523 76.003906,163.581482 
	C74.694214,163.086212 73.475319,162.327255 72.073761,161.305603 
z"/>
<path fill="#F9BF2D" opacity="1.000000" stroke="none" 
	d="
M107.142563,15.664419 
	C106.632980,14.756529 106.170715,13.555711 105.883263,12.136766 
	C106.435341,13.069592 106.812614,14.220541 107.142563,15.664419 
z"/>
<path fill="#EAA712" opacity="1.000000" stroke="none" 
	d="
M168.789825,85.636581 
	C168.345230,85.954773 167.837311,85.962563 166.817383,85.704987 
	C165.952194,84.528961 165.598999,83.618301 165.451050,82.514481 
	C165.793091,82.192482 165.929871,82.063652 166.066650,81.934814 
	C166.953278,83.065269 167.839890,84.195732 168.789825,85.636581 
z"/>
<path fill="#FECB3E" opacity="1.000000" stroke="none" 
	d="
M38.712044,82.638023 
	C37.780106,82.962601 36.736179,82.965073 35.301552,82.956436 
	C36.140591,82.735527 37.370319,82.525719 38.712044,82.638023 
z"/>
<path fill="#F3B522" opacity="1.000000" stroke="none" 
	d="
M79.943008,25.411749 
	C80.257202,26.174221 80.615891,27.310345 80.990494,28.812101 
	C80.666771,28.046959 80.327141,26.916180 79.943008,25.411749 
z"/>
<path fill="#FBC333" opacity="1.000000" stroke="none" 
	d="
M82.131912,36.294937 
	C82.293404,36.554977 82.393265,37.140202 82.338005,37.827778 
	C82.145348,37.493462 82.107803,37.056789 82.131912,36.294937 
z"/>
<path fill="#EAA712" opacity="1.000000" stroke="none" 
	d="
M164.912430,82.411713 
	C164.940948,81.853394 164.969482,81.295082 165.017075,80.317749 
	C165.349960,80.375786 165.663788,80.852844 166.022141,81.632355 
	C165.929871,82.063652 165.793091,82.192482 165.370392,82.437943 
	C165.084488,82.554573 164.912430,82.411713 164.912430,82.411713 
z"/>
<path fill="#FFCE45" opacity="1.000000" stroke="none" 
	d="
M94.919083,9.124414 
	C106.983368,14.697343 112.166695,31.161810 105.067741,42.423439 
	C104.477997,38.606930 104.227806,34.806477 103.977623,31.006020 
	C103.720024,29.250811 103.462425,27.495602 103.191322,25.076780 
	C102.743912,22.680363 102.679291,20.727005 101.802391,19.258781 
	C99.712006,15.758787 97.238091,12.487862 94.919083,9.124414 
z"/>
<path fill="#FFD55A" opacity="1.000000" stroke="none" 
	d="
M94.494919,9.106415 
	C97.238091,12.487862 99.712006,15.758787 101.802391,19.258781 
	C102.679291,20.727005 102.743912,22.680363 103.105408,24.707542 
	C101.321800,22.620621 99.584129,20.257830 97.904800,17.854279 
	C94.125938,12.445778 92.156868,12.056866 86.398827,15.500032 
	C86.795860,13.234202 87.446098,11.164787 88.096344,9.095373 
	C90.087814,9.093054 92.079285,9.090734 94.494919,9.106415 
z"/>
<path fill="#FFCE45" opacity="1.000000" stroke="none" 
	d="
M52.986549,90.975395 
	C55.012703,88.235481 57.038860,85.495567 59.236046,82.452560 
	C59.839520,81.931168 60.271965,81.712875 61.200993,81.454117 
	C62.804188,80.282433 63.910801,79.151215 65.017418,78.019997 
	C65.017418,78.019997 65.468315,77.922607 65.947342,78.063721 
	C66.972374,78.486931 67.518379,78.769035 68.064384,79.051132 
	C63.283920,83.312271 58.503460,87.573410 53.385887,91.695343 
	C53.028034,91.362549 53.007290,91.168976 52.986549,90.975395 
z"/>
<path fill="#FFD55A" opacity="1.000000" stroke="none" 
	d="
M103.826080,31.373095 
	C104.227806,34.806477 104.477997,38.606930 104.841019,42.695610 
	C104.948105,43.420097 104.942368,43.856361 104.702499,44.782291 
	C104.035675,45.879631 103.602982,46.487309 103.170273,47.094982 
	C103.113464,48.459473 103.056656,49.823967 102.963455,51.596230 
	C102.365959,50.233490 101.193481,48.403496 101.358864,46.703659 
	C101.846809,41.688206 102.864273,36.724266 103.826080,31.373095 
z"/>
<path fill="#FBC333" opacity="1.000000" stroke="none" 
	d="
M77.960312,62.753677 
	C78.253395,61.997898 78.546478,61.242123 79.231216,60.417496 
	C80.087746,61.241146 80.552635,62.133640 81.017525,63.026134 
	C80.770020,63.522514 80.522514,64.018890 79.841919,64.905098 
	C78.605499,66.533157 77.802162,67.771385 76.998825,69.009621 
	C76.477402,69.570183 75.955963,70.130753 75.072823,70.735184 
	C74.466820,70.540359 74.222527,70.301666 73.959274,69.740219 
	C73.924843,69.202484 73.909378,68.987503 73.893921,68.772522 
	C74.760666,67.354706 75.627403,65.936890 76.897232,64.082809 
	C77.520317,63.348923 77.740318,63.051300 77.960312,62.753677 
z"/>
<path fill="#FFCE45" opacity="1.000000" stroke="none" 
	d="
M81.323151,62.875473 
	C80.552635,62.133640 80.087746,61.241146 79.389633,60.156540 
	C79.737694,58.857674 80.318977,57.750919 81.397980,56.353477 
	C82.585327,56.030678 83.274948,55.998562 83.994400,56.311016 
	C84.071693,57.114323 84.119156,57.573063 84.166611,58.031799 
	C83.320663,59.596138 82.474716,61.160477 81.323151,62.875473 
z"/>
<path fill="#FBC333" opacity="1.000000" stroke="none" 
	d="
M68.295868,78.839752 
	C67.518379,78.769035 66.972374,78.486931 66.174637,78.024551 
	C67.703262,75.926712 69.483620,74.009163 71.604828,72.365662 
	C71.978416,73.445229 72.011154,74.250732 72.043900,75.056244 
	C70.871719,76.246948 69.699539,77.437660 68.295868,78.839752 
z"/>
<path fill="#FFCE45" opacity="1.000000" stroke="none" 
	d="
M87.770569,9.236132 
	C87.446098,11.164787 86.795860,13.234202 86.099777,15.667081 
	C86.006729,16.481449 85.959518,16.932352 85.859711,17.719744 
	C82.968513,14.524502 83.584099,11.644538 87.770569,9.236132 
z"/>
<path fill="#FFD55A" opacity="1.000000" stroke="none" 
	d="
M84.432632,57.850204 
	C84.119156,57.573063 84.071693,57.114323 84.082520,55.957779 
	C84.696594,53.374435 85.252388,51.488899 85.808182,49.603363 
	C85.808189,49.603363 86.288345,49.588310 86.526985,49.592686 
	C86.076637,52.287579 85.387642,54.978092 84.432632,57.850204 
z"/>
<path fill="#FBC333" opacity="1.000000" stroke="none" 
	d="
M85.241936,42.143002 
	C85.208626,40.681400 85.175308,39.219799 85.487335,37.352180 
	C86.488167,37.004082 87.143646,37.061993 87.799126,37.119907 
	C87.801521,38.440952 87.803925,39.762001 87.480255,41.510571 
	C86.516777,42.006397 85.879356,42.074699 85.241936,42.143002 
z"/>
<path fill="#FFCE45" opacity="1.000000" stroke="none" 
	d="
M72.340424,74.916733 
	C72.011154,74.250732 71.978416,73.445229 71.913666,72.234772 
	C72.146881,71.362648 72.412109,70.895470 73.074371,70.225784 
	C73.640350,70.036507 73.809296,70.049736 73.978241,70.062965 
	C74.222527,70.301666 74.466820,70.540359 74.895050,70.961151 
	C74.264984,72.354584 73.450966,73.565903 72.340424,74.916733 
z"/>
<path fill="#FFCE45" opacity="1.000000" stroke="none" 
	d="
M87.846146,36.707062 
	C87.143646,37.061993 86.488167,37.004082 85.506592,36.913727 
	C85.142296,35.860203 85.104103,34.839119 85.065292,33.434628 
	C85.267502,33.036087 85.470322,33.020958 86.261978,32.986736 
	C87.237061,32.976765 87.623291,32.985889 88.009529,32.995014 
	C87.970741,34.094746 87.931961,35.194481 87.846146,36.707062 
z"/>
<path fill="#FFD55A" opacity="1.000000" stroke="none" 
	d="
M88.127701,32.724518 
	C87.623291,32.985889 87.237061,32.976765 86.566200,32.963943 
	C86.459007,31.850237 86.636436,30.740231 86.939407,29.312807 
	C87.458595,30.148268 87.852242,31.301144 88.127701,32.724518 
z"/>
<path fill="#FFCE45" opacity="1.000000" stroke="none" 
	d="
M85.283463,42.465485 
	C85.879356,42.074699 86.516777,42.006397 87.471222,41.906868 
	C87.852821,42.975410 87.917381,44.075184 87.767929,45.787315 
	C87.255196,46.665806 86.956474,46.931934 86.657761,47.198059 
	C86.213501,45.728031 85.769241,44.257999 85.283463,42.465485 
z"/>
<path fill="#FFCE45" opacity="1.000000" stroke="none" 
	d="
M77.281235,68.852982 
	C77.802162,67.771385 78.605499,66.533157 79.688232,65.136459 
	C79.166306,66.217438 78.364975,67.456894 77.281235,68.852982 
z"/>
<path fill="#FFCE45" opacity="1.000000" stroke="none" 
	d="
M86.798798,26.787979 
	C86.546700,26.505857 86.227455,25.949732 85.956657,25.191948 
	C86.247284,25.498184 86.489464,26.006079 86.798798,26.787979 
z"/>
<path fill="#FFD55A" opacity="1.000000" stroke="none" 
	d="
M86.709129,47.402634 
	C86.956474,46.931934 87.255196,46.665806 87.773148,46.198223 
	C87.754860,46.600979 87.517349,47.205189 87.080978,47.910267 
	C86.882111,48.011131 86.760498,47.607204 86.709129,47.402634 
z"/>
<path fill="#FDC636" opacity="1.000000" stroke="none" 
	d="
M52.642750,90.989319 
	C53.007290,91.168976 53.028034,91.362549 53.081863,91.847458 
	C52.384800,91.918663 51.654648,91.698532 50.787663,91.269791 
	C50.650826,91.061180 51.134594,91.035896 51.372849,91.029953 
	C51.840382,91.017090 52.069668,91.010162 52.642750,90.989319 
z"/>
<path fill="#F0B01B" opacity="1.000000" stroke="none" 
	d="
M62.146347,149.201355 
	C61.377209,148.858368 60.938404,148.552094 60.126709,147.915955 
	C59.541435,147.351379 59.303905,147.145706 59.041237,146.969070 
	C59.041237,146.969070 59.041439,146.945343 59.051449,146.934326 
	C58.717701,145.869751 58.373943,144.816223 57.927227,143.446991 
	C58.308304,143.094864 58.792343,143.058441 59.885391,143.250824 
	C63.579632,145.047043 66.856766,146.327271 69.713760,148.236252 
	C77.963715,153.748703 87.301857,154.573883 96.757545,154.912918 
	C100.716202,155.054855 103.457939,153.261566 103.945663,148.973358 
	C103.968719,146.283234 103.991776,143.593124 104.293320,140.440125 
	C104.943413,139.964035 105.315002,139.950806 105.805161,140.263763 
	C106.016937,143.664734 106.110130,146.739532 106.178070,150.216156 
	C106.667740,158.271149 105.674561,160.048309 97.867737,159.962982 
	C90.840820,159.886154 83.831589,158.191162 76.814560,157.209900 
	C75.773979,156.853607 74.733391,156.497314 73.210236,155.755371 
	C70.479927,153.907928 68.232178,152.446121 65.984428,150.984299 
	C64.815178,150.402222 63.645927,149.820129 62.146347,149.201355 
z"/>
<path fill="#F7BC29" opacity="1.000000" stroke="none" 
	d="
M103.593475,149.104172 
	C103.457939,153.261566 100.716202,155.054855 96.757545,154.912918 
	C87.301857,154.573883 77.963715,153.748703 69.713760,148.236252 
	C66.856766,146.327271 63.579632,145.047043 60.247993,143.236542 
	C64.053909,143.405014 68.215309,143.371262 72.133392,144.330902 
	C78.243256,145.827393 84.086258,148.541885 90.238304,149.692963 
	C94.398430,150.471329 98.895126,149.450851 103.593475,149.104172 
z"/>
<path fill="#F7BC29" opacity="1.000000" stroke="none" 
	d="
M105.686600,139.937576 
	C105.315002,139.950806 104.943413,139.964035 104.293533,139.991470 
	C97.827827,130.361053 93.611794,120.212181 96.513397,108.451668 
	C97.041496,106.311226 98.353722,104.364258 99.617790,102.591362 
	C101.195297,108.564423 102.458992,114.274094 103.775780,120.382416 
	C103.891190,121.848717 103.953514,122.916382 103.895805,124.287666 
	C104.569336,128.423065 105.362892,132.254852 106.110718,136.472473 
	C105.938858,137.884750 105.812729,138.911163 105.686600,139.937576 
z"/>
<path fill="#F0B01B" opacity="1.000000" stroke="none" 
	d="
M103.722687,119.983765 
	C102.458992,114.274094 101.195297,108.564423 99.905899,102.395966 
	C99.885597,100.870636 99.891006,99.804100 99.866318,98.335434 
	C100.229576,97.884201 100.622948,97.835114 101.415253,98.205009 
	C101.928108,100.055977 102.042023,101.487953 102.146072,103.306335 
	C103.077332,105.803833 104.018463,107.914925 104.940079,110.427963 
	C104.651199,113.195992 104.381821,115.562073 104.092125,118.281189 
	C104.076012,119.105164 104.080215,119.576103 103.993652,120.033142 
	C103.902878,120.019249 103.722687,119.983765 103.722687,119.983765 
z"/>
<path fill="#FFD04A" opacity="1.000000" stroke="none" 
	d="
M84.983345,115.994560 
	C84.987305,115.551781 84.991257,115.109009 85.368286,114.331833 
	C86.479851,113.988136 87.218346,113.978844 87.956833,113.969543 
	C87.827385,118.249840 87.467354,122.538399 87.620415,126.808571 
	C87.874939,133.909546 85.175819,136.426392 78.045662,135.710037 
	C71.637611,135.066238 65.196114,134.755463 58.762657,133.987701 
	C63.320618,132.996719 67.951561,132.604568 72.436256,131.575256 
	C82.008438,129.378281 84.646568,125.912155 84.983345,115.994560 
z"/>
<path fill="#FFD354" opacity="1.000000" stroke="none" 
	d="
M84.709427,116.188248 
	C84.646568,125.912155 82.008438,129.378281 72.436256,131.575256 
	C67.951561,132.604568 63.320618,132.996719 58.382904,133.829300 
	C57.567291,133.980728 57.124722,133.980469 56.350739,133.977509 
	C56.011883,133.233170 56.004436,132.491531 55.993713,131.378876 
	C59.956238,130.624359 63.944534,130.395615 67.882874,129.823166 
	C74.765564,128.822723 80.016937,125.509811 82.688339,118.757477 
	C83.038040,117.873573 83.841965,117.169365 84.709427,116.188248 
z"/>
<path fill="#D78909" opacity="1.000000" stroke="none" 
	d="
M102.155930,102.919930 
	C102.042023,101.487953 101.928108,100.055977 101.711182,98.199448 
	C101.611290,97.425003 101.614403,97.075111 101.827713,96.123535 
	C102.368279,94.031654 102.698662,92.541466 103.269974,91.168655 
	C103.980415,91.545120 104.449913,91.804199 104.997429,92.371841 
	C105.175880,93.092979 105.276321,93.505539 105.389832,94.236847 
	C105.653915,95.587387 105.904922,96.619186 106.019447,97.975380 
	C106.919006,101.501961 107.955055,104.704140 108.876129,108.209976 
	C108.550720,109.133286 108.340263,109.752930 107.969818,110.711952 
	C107.572701,113.360886 107.335571,115.670441 107.071381,118.314819 
	C107.018883,119.096756 106.993439,119.543854 106.643532,119.993568 
	C105.886421,119.997246 105.453789,119.998314 105.030891,119.795113 
	C104.731239,119.036613 104.421837,118.482384 104.112442,117.928162 
	C104.381821,115.562073 104.651199,113.195992 105.056923,110.139893 
	C104.180824,107.273239 103.168373,105.096581 102.155930,102.919930 
z"/>
<path fill="#FFD04A" opacity="1.000000" stroke="none" 
	d="
M87.976837,107.992180 
	C89.454987,105.104439 90.933136,102.216698 92.702179,99.160248 
	C91.446709,103.122826 89.900330,107.254128 88.084122,111.416183 
	C87.868462,110.295357 87.922646,109.143768 87.976837,107.992180 
z"/>
<path fill="#FFD04A" opacity="1.000000" stroke="none" 
	d="
M94.331482,96.898605 
	C96.564911,94.140404 99.109825,91.266258 101.909348,88.571869 
	C102.081680,89.139603 101.999390,89.527565 101.707932,90.164879 
	C100.965179,91.600525 100.431618,92.786827 99.898056,93.973137 
	C98.146362,94.909653 96.394669,95.846169 94.331482,96.898605 
z"/>
<path fill="#F0B01B" opacity="1.000000" stroke="none" 
	d="
M100.026703,94.233093 
	C100.431618,92.786827 100.965179,91.600525 101.896019,90.352242 
	C102.538544,90.543930 102.783791,90.797600 103.029037,91.051277 
	C102.698662,92.541466 102.368279,94.031654 101.837662,95.860657 
	C101.143402,95.630669 100.649376,95.061859 100.026703,94.233093 
z"/>
<path fill="#FFD354" opacity="1.000000" stroke="none" 
	d="
M87.687080,108.172928 
	C87.922646,109.143768 87.868462,110.295357 87.898682,111.719139 
	C87.978569,112.431267 87.974052,112.871201 87.963181,113.640335 
	C87.218346,113.978844 86.479851,113.988136 85.371429,113.999756 
	C85.800102,112.119278 86.598717,110.236481 87.687080,108.172928 
z"/>
<path fill="#FFD354" opacity="1.000000" stroke="none" 
	d="
M51.582672,131.026825 
	C51.792599,131.262360 51.617157,131.640823 51.343353,131.735855 
	C39.596256,135.813049 27.750769,137.969467 15.295465,133.223785 
	C15.193182,130.623413 15.316223,127.497505 18.806192,129.133041 
	C29.407061,134.101028 40.286312,131.946884 51.582672,131.026825 
z"/>
<path fill="#FFCE45" opacity="1.000000" stroke="none" 
	d="
M111.954102,76.759964 
	C111.624390,77.395248 111.171455,77.700653 110.468323,78.115234 
	C106.764275,73.944717 101.885300,70.305031 103.820770,63.332565 
	C106.584045,67.474876 109.207466,71.952477 111.954102,76.759964 
z"/>
<path fill="#F5B723" opacity="1.000000" stroke="none" 
	d="
M103.269974,91.168655 
	C102.783791,90.797600 102.538544,90.543930 102.105194,90.102898 
	C101.999390,89.527565 102.081680,89.139603 102.234451,88.464813 
	C102.484756,87.913605 102.660469,87.646507 102.972458,87.182068 
	C103.808350,86.971512 104.503860,86.955582 105.553284,87.312622 
	C105.577942,89.144821 105.248680,90.604042 104.919418,92.063271 
	C104.449913,91.804199 103.980415,91.545120 103.269974,91.168655 
z"/>
<path fill="#FDC636" opacity="1.000000" stroke="none" 
	d="
M145.978104,130.075638 
	C146.152908,130.150040 146.327698,130.224442 146.774414,130.381927 
	C149.013916,130.692627 151.218414,130.438553 152.892715,131.262238 
	C155.323761,132.458206 158.795898,134.132675 159.220169,136.150543 
	C159.740417,138.624847 158.406891,142.934708 156.423035,144.233505 
	C148.801956,149.222946 139.960815,149.026978 131.505051,147.015305 
	C127.362373,146.029724 125.898186,141.709518 126.079269,137.336777 
	C126.276001,132.586029 129.801437,131.558838 134.233719,130.504242 
	C135.853455,129.558609 136.718658,128.802933 137.583878,128.047256 
	C137.670670,128.390610 137.879456,128.498962 138.213593,128.661240 
	C140.803986,129.325333 143.391052,129.700485 145.978104,130.075638 
M134.365082,141.556076 
	C139.643814,141.625137 144.962463,142.084824 150.179657,141.551651 
	C152.008896,141.364716 153.588791,138.737915 155.282547,137.225250 
	C153.444809,136.160233 151.674210,134.348511 149.756210,134.176010 
	C144.822327,133.732300 139.806320,133.778992 134.858795,134.130951 
	C133.043457,134.260101 131.328400,135.799042 129.567596,136.694901 
	C130.927094,138.295517 132.286591,139.896118 134.365082,141.556076 
z"/>
<path fill="#DD920A" opacity="1.000000" stroke="none" 
	d="
M129.134171,152.202759 
	C127.115944,152.626678 125.097717,153.050598 122.764053,153.742065 
	C122.448616,154.009613 122.494759,154.054626 122.400604,153.687363 
	C118.844048,151.596283 115.381660,149.872467 111.935387,147.860504 
	C111.963371,147.380325 111.975243,147.188309 112.368637,146.988098 
	C113.512802,146.952164 114.275436,146.924423 115.038071,146.896667 
	C115.470963,146.901688 115.903847,146.906708 117.002426,147.083862 
	C120.457542,147.814972 123.246979,148.373962 126.036415,148.932953 
	C126.723785,149.014404 127.411156,149.095856 128.487488,149.499878 
	C128.962357,150.615906 129.048264,151.409348 129.134171,152.202759 
z"/>
<path fill="#D08009" opacity="1.000000" stroke="none" 
	d="
M111.987114,146.996277 
	C111.975243,147.188309 111.963371,147.380325 111.719315,148.007385 
	C111.232689,149.680222 110.978256,150.918030 110.429512,152.028809 
	C108.824585,151.205948 107.513962,150.510132 106.203331,149.814331 
	C106.110130,146.739532 106.016937,143.664734 105.805168,140.263763 
	C105.812729,138.911163 105.938858,137.884750 106.317535,136.283752 
	C107.048828,135.140564 107.527588,134.571945 108.018097,134.015793 
	C108.029839,134.028259 108.057571,134.053268 108.057571,134.053268 
	C108.310532,137.051544 108.563499,140.049805 109.106079,143.684464 
	C110.259499,145.212662 111.123306,146.104477 111.987114,146.996277 
z"/>
<path fill="#9F4D0F" opacity="1.000000" stroke="none" 
	d="
M137.218262,127.916672 
	C136.718658,128.802933 135.853455,129.558609 134.563904,130.373718 
	C131.743408,130.327194 129.347214,130.221222 126.135185,130.062866 
	C123.887802,129.657776 122.456268,129.305099 121.036270,128.667786 
	C121.072868,128.004120 121.097931,127.625099 121.493103,127.286446 
	C123.362801,127.342354 124.862396,127.357910 126.685974,127.431236 
	C128.093536,127.301842 129.177124,127.114677 130.608170,126.900352 
	C131.388336,126.707474 131.821060,126.541748 132.569351,126.513611 
	C133.763733,126.770447 134.642517,126.889687 135.521317,127.008926 
	C135.965088,127.267982 136.408859,127.527039 137.218262,127.916672 
z"/>
<path fill="#B5610D" opacity="1.000000" stroke="none" 
	d="
M121.122986,127.246086 
	C121.097931,127.625099 121.072868,128.004120 120.659470,128.742065 
	C119.769646,129.207458 119.268150,129.313904 118.766663,129.420349 
	C118.429489,129.419006 118.092316,129.417664 117.117607,129.364578 
	C114.983177,129.528488 113.486282,129.744141 111.638458,129.951355 
	C110.585556,129.953308 109.883598,129.963730 109.224136,129.677979 
	C109.171371,127.217766 109.076111,125.053734 109.265503,123.055733 
	C110.671043,123.872215 111.791946,124.522675 113.167175,125.431229 
	C115.988655,126.208252 118.555824,126.727173 121.122986,127.246086 
z"/>
<path fill="#EAA712" opacity="1.000000" stroke="none" 
	d="
M129.576843,152.300751 
	C129.048264,151.409348 128.962357,150.615906 128.832291,149.529877 
	C132.602081,149.529968 136.416031,149.822662 140.653625,150.470978 
	C141.024292,151.488297 140.971329,152.150009 140.918350,152.811722 
	C137.285400,152.674057 133.652451,152.536392 129.576843,152.300751 
z"/>
<path fill="#ECAA16" opacity="1.000000" stroke="none" 
	d="
M125.887939,148.621613 
	C123.246979,148.373962 120.457542,147.814972 117.327072,147.088562 
	C120.474854,143.786133 123.273582,144.999557 125.887939,148.621613 
z"/>
<path fill="#DD920A" opacity="1.000000" stroke="none" 
	d="
M141.347748,152.887283 
	C140.971329,152.150009 141.024292,151.488297 141.111694,150.500427 
	C142.469666,150.153198 143.793198,150.132156 145.539581,150.433014 
	C146.007187,151.408829 146.051971,152.062698 146.096771,152.716583 
	C144.656891,152.798676 143.217026,152.880753 141.347748,152.887283 
z"/>
<path fill="#EAA712" opacity="1.000000" stroke="none" 
	d="
M146.455994,152.723846 
	C146.051971,152.062698 146.007187,151.408829 145.939972,150.429993 
	C147.086288,149.807358 148.255035,149.509659 149.790527,149.211334 
	C149.816391,150.076004 149.475510,150.941299 149.031036,152.063629 
	C148.223373,152.457489 147.519287,152.594299 146.455994,152.723846 
z"/>
<path fill="#ECAA16" opacity="1.000000" stroke="none" 
	d="
M112.368637,146.988098 
	C111.123306,146.104477 110.259499,145.212662 109.262222,144.036072 
	C110.979713,144.633377 112.830666,145.515442 114.859848,146.647095 
	C114.275436,146.924423 113.512802,146.952164 112.368637,146.988098 
z"/>
<path fill="#D08009" opacity="1.000000" stroke="none" 
	d="
M109.181633,129.974152 
	C109.883598,129.963730 110.585556,129.953308 111.511612,130.218109 
	C111.505592,131.038696 111.275497,131.584106 111.045395,132.129501 
	C110.243568,132.721481 109.441742,133.313477 108.348740,133.979370 
	C108.057571,134.053268 108.029839,134.028259 108.024597,133.617813 
	C108.046379,132.147980 108.073402,131.088593 108.370773,130.016541 
	C108.821304,129.993973 109.001465,129.984055 109.181633,129.974152 
z"/>
<path fill="#DD920A" opacity="1.000000" stroke="none" 
	d="
M111.396744,132.062500 
	C111.275497,131.584106 111.505592,131.038696 111.862541,130.226562 
	C113.486282,129.744141 114.983177,129.528488 116.864807,129.371277 
	C115.415726,130.284973 113.581909,131.140244 111.396744,132.062500 
z"/>
<path fill="#DD920A" opacity="1.000000" stroke="none" 
	d="
M119.032082,129.632751 
	C119.268150,129.313904 119.769646,129.207458 120.647934,129.026718 
	C122.456268,129.305099 123.887802,129.657776 125.689728,130.079895 
	C123.805916,130.047958 121.551704,129.946564 119.032082,129.632751 
z"/>
<path fill="#EAA712" opacity="1.000000" stroke="none" 
	d="
M154.814728,148.183807 
	C154.529312,148.441864 153.965866,148.779388 153.196594,149.075500 
	C153.506088,148.777161 154.021408,148.520218 154.814728,148.183807 
z"/>
<path fill="#F9BF2D" opacity="1.000000" stroke="none" 
	d="
M109.710403,45.198402 
	C109.321404,49.041412 108.650513,53.083279 107.960236,57.560375 
	C104.225960,53.298927 106.726143,49.336155 109.710403,45.198402 
z"/>
<path fill="#F9BF2D" opacity="1.000000" stroke="none" 
	d="
M114.121933,71.267715 
	C115.868996,72.022011 118.900986,72.242355 117.195564,75.838028 
	C116.060760,74.511497 115.143257,73.045380 114.121933,71.267715 
z"/>
<path fill="#F9BF2D" opacity="1.000000" stroke="none" 
	d="
M107.925491,61.272331 
	C108.610878,62.443665 109.211655,63.893852 109.883469,65.677338 
	C109.249954,64.524155 108.545410,63.037670 107.925491,61.272331 
z"/>
<path fill="#FFCE45" opacity="1.000000" stroke="none" 
	d="
M103.394760,46.925438 
	C103.602982,46.487309 104.035675,45.879631 104.701675,45.109325 
	C104.496407,45.549763 104.057816,46.152832 103.394760,46.925438 
z"/>
<path fill="#F9BF2D" opacity="1.000000" stroke="none" 
	d="
M111.980934,30.174374 
	C112.236031,30.476381 112.440186,30.971510 112.692856,31.727764 
	C112.470909,31.448425 112.200455,30.907959 111.980934,30.174374 
z"/>
<path fill="#F9BF2D" opacity="1.000000" stroke="none" 
	d="
M112.608978,35.124397 
	C112.599869,35.516998 112.434578,36.024845 112.138420,36.768764 
	C112.155968,36.416439 112.304382,35.828045 112.608978,35.124397 
z"/>
<path fill="#FFCE45" opacity="1.000000" stroke="none" 
	d="
M115.020309,76.124985 
	C114.994766,76.212990 114.768356,76.427834 114.333313,76.753563 
	C114.365501,76.669273 114.597092,76.465065 115.020309,76.124985 
z"/>
<path fill="#FFD765" opacity="1.000000" stroke="none" 
	d="
M128.013275,78.871872 
	C130.388382,78.564194 132.763474,78.256523 135.900330,78.099564 
	C140.134186,78.438065 143.606308,78.625870 147.481995,78.843781 
	C150.947571,79.530212 154.009537,80.186539 157.226898,81.034821 
	C157.589310,81.482849 157.793564,81.741104 157.965881,82.384888 
	C157.680664,87.922768 154.483643,90.475685 149.858093,91.385872 
	C145.982605,92.148453 142.005798,92.379189 138.097260,92.994186 
	C129.968307,94.273247 123.222878,86.999084 128.013275,78.871872 
z"/>
<path fill="#FBC232" opacity="1.000000" stroke="none" 
	d="
M104.997437,92.371841 
	C105.248680,90.604042 105.577942,89.144821 105.901199,87.301147 
	C108.730682,80.548409 118.601189,76.153618 125.657135,78.464767 
	C125.429276,78.900177 125.237564,78.972504 124.699249,79.135391 
	C118.616341,82.035133 117.984566,85.011177 121.411606,90.063721 
	C125.143471,95.565659 129.720474,98.816772 136.683304,98.086418 
	C138.406525,97.905670 140.225525,98.637993 141.985535,99.269424 
	C141.952560,100.012253 141.934555,100.436234 141.461990,100.880768 
	C137.020035,100.903618 133.032608,100.905930 128.866272,100.628036 
	C123.852707,96.316406 118.676270,93.647415 111.996552,94.864021 
	C109.916389,95.242889 107.590279,94.271408 105.376755,93.918106 
	C105.276321,93.505539 105.175880,93.092979 104.997437,92.371841 
z"/>
<path fill="#FECB3E" opacity="1.000000" stroke="none" 
	d="
M142.000488,98.950592 
	C140.225525,98.637993 138.406525,97.905670 136.683304,98.086418 
	C129.720474,98.816772 125.143471,95.565659 121.411606,90.063721 
	C117.984566,85.011177 118.616341,82.035133 124.572792,79.465561 
	C122.591316,85.356918 125.777634,94.433968 131.153671,95.286713 
	C139.529526,96.615273 148.122742,96.180725 155.803848,91.939651 
	C160.197571,89.513672 160.598648,86.204353 157.995026,82.001564 
	C157.793564,81.741104 157.589310,81.482849 157.495453,80.948845 
	C159.700928,81.183533 161.793198,81.696159 163.885468,82.208786 
	C164.057343,82.239708 164.229218,82.270638 164.656769,82.356644 
	C164.912430,82.411713 165.084488,82.554573 165.165146,82.631104 
	C165.598999,83.618301 165.952194,84.528961 166.436401,85.702423 
	C166.565613,86.600151 166.563782,87.235077 166.290207,88.255081 
	C165.627762,88.737610 165.237076,88.835060 164.513031,89.021164 
	C160.116211,92.016510 156.052734,94.923210 151.615997,97.860245 
	C150.494431,97.919998 149.746140,97.949417 148.726196,97.861603 
	C147.292923,98.141212 146.131302,98.538063 144.598526,98.937805 
	C143.485077,98.943993 142.742783,98.947289 142.000488,98.950592 
z"/>
<path fill="#FFD354" opacity="1.000000" stroke="none" 
	d="
M157.965881,82.384888 
	C160.598648,86.204353 160.197571,89.513672 155.803848,91.939651 
	C148.122742,96.180725 139.529526,96.615273 131.153671,95.286713 
	C125.777634,94.433968 122.591316,85.356918 124.919403,79.375000 
	C125.237564,78.972504 125.429276,78.900177 125.901505,78.699753 
	C126.590744,78.628250 126.999474,78.684837 127.710739,78.806641 
	C123.222878,86.999084 129.968307,94.273247 138.097260,92.994186 
	C142.005798,92.379189 145.982605,92.148453 149.858093,91.385872 
	C154.483643,90.475685 157.680664,87.922768 157.965881,82.384888 
z"/>
<path fill="#FBC232" opacity="1.000000" stroke="none" 
	d="
M163.721436,81.899734 
	C161.793198,81.696159 159.700928,81.183533 157.340088,80.756882 
	C154.009537,80.186539 150.947571,79.530212 147.460602,78.539658 
	C146.985580,77.598114 146.935577,76.990799 146.885559,76.383484 
	C153.074188,76.097832 159.192017,76.038895 163.721436,81.899734 
M154.490509,78.481041 
	C154.490509,78.481041 154.443008,78.496651 154.490509,78.481041 
z"/>
<path fill="#FECB3E" opacity="1.000000" stroke="none" 
	d="
M146.469696,76.332779 
	C146.935577,76.990799 146.985580,77.598114 147.057007,78.509552 
	C143.606308,78.625870 140.134186,78.438065 136.293091,78.054459 
	C139.300674,77.333130 142.677246,76.807602 146.469696,76.332779 
z"/>
<path fill="#EDAB17" opacity="1.000000" stroke="none" 
	d="
M122.494759,154.054626 
	C122.494759,154.054626 122.448616,154.009613 122.423996,154.028549 
	C123.359749,154.278687 124.320122,154.509903 125.553116,155.151520 
	C125.768005,155.763382 125.710281,155.964828 125.488007,156.435638 
	C122.271599,161.962494 124.493958,168.087082 130.076141,168.080597 
	C135.389984,168.074417 140.845001,166.829987 145.963745,165.244629 
	C149.318527,164.205612 150.818726,161.244308 147.944794,157.820099 
	C149.674454,158.325806 152.379852,158.377014 152.881790,159.454605 
	C153.481705,160.742523 152.770508,163.623856 151.613922,164.551132 
	C148.852753,166.764832 145.576202,168.402222 142.352982,169.950012 
	C140.153351,171.006287 137.692627,171.518860 135.090271,172.507767 
	C132.895065,172.746506 130.958237,172.751984 128.368729,172.513016 
	C122.178513,169.476822 116.640991,166.685089 111.103477,163.893341 
	C111.389923,161.272385 111.676376,158.651443 112.425911,155.482864 
	C116.090919,154.641708 119.292839,154.348175 122.494759,154.054626 
z"/>
<path fill="#E39C0B" opacity="1.000000" stroke="none" 
	d="
M106.178070,150.216156 
	C107.513962,150.510132 108.824585,151.205948 110.417641,152.320709 
	C110.647331,153.128311 110.594589,153.516983 110.541840,153.905655 
	C110.053368,155.288452 109.357544,156.635483 109.111847,158.060150 
	C107.966408,164.701889 107.639053,165.117874 100.708542,164.133133 
	C94.669441,163.275085 88.647789,162.192810 82.700684,160.846283 
	C80.738136,160.401917 79.032150,158.824387 77.011703,157.487457 
	C83.831589,158.191162 90.840820,159.886154 97.867737,159.962982 
	C105.674561,160.048309 106.667740,158.271149 106.178070,150.216156 
z"/>
<path fill="#DD920A" opacity="1.000000" stroke="none" 
	d="
M111.091949,164.261688 
	C116.640991,166.685089 122.178513,169.476822 127.950851,172.515747 
	C123.677559,171.906189 119.169449,171.049469 114.269691,170.122864 
	C113.056107,169.152420 112.234161,168.251862 111.248672,167.086639 
	C111.083542,166.091339 111.081978,165.360687 111.091949,164.261688 
z"/>
<path fill="#B5610D" opacity="1.000000" stroke="none" 
	d="
M110.819618,154.128815 
	C110.594589,153.516983 110.647331,153.128311 110.711945,152.447739 
	C110.978256,150.918030 111.232689,149.680222 111.703201,148.295532 
	C115.381660,149.872467 118.844048,151.596283 122.400604,153.687363 
	C119.292839,154.348175 116.090919,154.641708 112.530907,155.112823 
	C111.814339,154.977585 111.455864,154.664795 110.819618,154.128815 
z"/>
<path fill="#E39C0B" opacity="1.000000" stroke="none" 
	d="
M66.170639,151.264648 
	C68.232178,152.446121 70.479927,153.907928 72.895355,155.656891 
	C70.827637,154.477692 68.592239,153.011337 66.170639,151.264648 
z"/>
<path fill="#D78909" opacity="1.000000" stroke="none" 
	d="
M59.159164,147.179550 
	C59.303905,147.145706 59.541435,147.351379 59.900597,147.771301 
	C59.737225,147.840271 59.480469,147.651428 59.159164,147.179550 
z"/>
<path fill="#FECB3E" opacity="1.000000" stroke="none" 
	d="
M135.911407,126.768471 
	C134.642517,126.889687 133.763733,126.770447 132.602753,126.227226 
	C131.482559,124.179398 130.959503,122.256653 129.751602,120.983826 
	C124.721924,115.683830 123.952805,112.045563 127.347549,106.167549 
	C127.810524,105.978607 127.992546,105.895432 128.363617,105.854668 
	C128.552673,105.897072 128.918869,106.023788 128.956360,106.350471 
	C129.018570,106.894974 129.043289,107.112793 129.051239,107.653732 
	C128.990356,108.639442 128.946289,109.302048 128.692047,110.132782 
	C128.660263,111.530243 128.838654,112.759583 129.010559,113.993835 
	C129.004074,113.998756 129.021286,113.983444 129.156311,114.301712 
	C131.791885,118.548370 135.649567,119.086594 139.728531,118.468483 
	C144.292755,117.776833 148.822281,116.812828 153.330048,115.802864 
	C158.953415,114.542946 159.940857,112.905907 159.291656,107.153679 
	C163.837601,110.682213 162.597916,117.560852 157.153976,119.763229 
	C154.425690,120.866982 151.448608,121.436050 148.533783,121.975044 
	C145.818741,122.477081 146.111694,123.610237 147.500671,125.246109 
	C143.767624,125.673416 140.034561,126.100716 135.911407,126.768471 
z"/>
<path fill="#FFD04A" opacity="1.000000" stroke="none" 
	d="
M158.969635,107.042915 
	C159.940857,112.905907 158.953415,114.542946 153.330048,115.802864 
	C148.822281,116.812828 144.292755,117.776833 139.728531,118.468483 
	C135.649567,119.086594 131.791885,118.548370 129.530319,114.394073 
	C137.228760,116.146172 144.535034,115.386963 151.835175,113.180214 
	C155.557983,112.054878 156.480698,110.277985 154.079010,106.859970 
	C154.100067,106.628716 154.139648,106.165970 154.139648,106.165970 
	C155.476028,106.111099 156.812424,106.056229 158.552765,106.268250 
	C158.961029,106.704391 158.965332,106.873657 158.969635,107.042915 
z"/>
<path fill="#F9BF2D" opacity="1.000000" stroke="none" 
	d="
M159.291656,107.153679 
	C158.965332,106.873657 158.961029,106.704391 158.954041,106.281319 
	C160.715408,106.254013 162.479477,106.480515 164.600006,107.312172 
	C165.302246,114.413010 164.371811,120.291306 157.647110,123.492332 
	C156.317490,124.125244 155.102417,124.998810 153.834518,125.761398 
	C152.034943,125.673477 150.235382,125.585564 147.968231,125.371880 
	C146.111694,123.610237 145.818741,122.477081 148.533783,121.975044 
	C151.448608,121.436050 154.425690,120.866982 157.153976,119.763229 
	C162.597916,117.560852 163.837601,110.682213 159.291656,107.153679 
z"/>
<path fill="#EDAB17" opacity="1.000000" stroke="none" 
	d="
M154.226074,125.761658 
	C155.102417,124.998810 156.317490,124.125244 157.647110,123.492332 
	C164.371811,120.291306 165.302246,114.413010 164.939789,107.476883 
	C170.153931,114.744942 165.074844,123.973839 154.226074,125.761658 
z"/>
<path fill="#F9BF2D" opacity="1.000000" stroke="none" 
	d="
M153.707489,106.120132 
	C154.139648,106.165970 154.100067,106.628716 153.611115,106.846146 
	C149.103928,107.129265 145.085678,107.194962 140.784927,107.245987 
	C140.313858,107.234276 140.125290,107.237236 139.483459,107.223694 
	C135.709457,107.248337 132.388733,107.289482 129.068024,107.330620 
	C129.043289,107.112793 129.018570,106.894974 129.188950,106.269424 
	C129.384064,105.861687 129.867447,105.776413 130.175583,105.805954 
	C130.689850,105.825439 130.895966,105.815392 131.554382,105.812119 
	C135.348633,105.803291 138.690567,105.787697 142.032501,105.772095 
	C144.055328,105.852020 146.078171,105.931938 148.534790,105.986000 
	C150.404175,105.998192 151.839737,106.036247 153.707489,106.120132 
z"/>
<path fill="#9F4D0F" opacity="1.000000" stroke="none" 
	d="
M145.962494,129.638428 
	C143.391052,129.700485 140.803986,129.325333 138.314484,128.485809 
	C140.643967,128.087204 142.875900,128.152985 145.504974,128.273071 
	C145.917038,128.618652 145.931961,128.909943 145.962494,129.638428 
z"/>
<path fill="#FDC636" opacity="1.000000" stroke="none" 
	d="
M147.502823,157.825684 
	C150.818726,161.244308 149.318527,164.205612 145.963745,165.244629 
	C140.845001,166.829987 135.389984,168.074417 130.076141,168.080597 
	C124.493958,168.087082 122.271599,161.962494 125.876884,156.435471 
	C127.393791,155.879837 128.357269,155.593704 129.320755,155.307587 
	C130.540222,155.412369 131.759674,155.517166 133.491257,155.989136 
	C135.426590,156.735062 136.849792,157.113815 138.273010,157.492569 
	C141.202286,157.605469 144.131577,157.718369 147.502823,157.825684 
z"/>
<path fill="#EDAB17" opacity="1.000000" stroke="none" 
	d="
M138.212616,157.286011 
	C136.849792,157.113815 135.426590,156.735062 133.846634,156.080750 
	C134.795425,155.752029 135.900955,155.698868 137.414307,155.728668 
	C137.932159,156.234238 138.042175,156.656845 138.212616,157.286011 
z"/>
<path fill="#FBC333" opacity="1.000000" stroke="none" 
	d="
M85.559319,49.613670 
	C85.252388,51.488899 84.696594,53.374435 84.052689,55.613213 
	C83.274948,55.998562 82.585327,56.030678 81.553886,56.080093 
	C81.182121,55.919460 81.152168,55.741520 81.093002,55.294716 
	C82.479347,53.225224 83.894897,51.424603 85.559319,49.613670 
z"/>
<path fill="#FBC333" opacity="1.000000" stroke="none" 
	d="
M64.703293,78.114143 
	C63.910801,79.151215 62.804188,80.282433 61.427055,81.358170 
	C62.234081,80.271217 63.311626,79.239754 64.703293,78.114143 
z"/>
<path fill="#FBC232" opacity="1.000000" stroke="none" 
	d="
M77.774826,62.961285 
	C77.740318,63.051300 77.520317,63.348923 77.125702,63.862778 
	C77.163826,63.775642 77.376579,63.472267 77.774826,62.961285 
z"/>
<path fill="#FBC232" opacity="1.000000" stroke="none" 
	d="
M73.959274,69.740219 
	C73.809296,70.049736 73.640350,70.036507 73.218163,69.997597 
	C73.164452,69.701149 73.363998,69.430389 73.728729,68.966080 
	C73.909378,68.987503 73.924843,69.202484 73.959274,69.740219 
z"/>
<path fill="#FBC232" opacity="1.000000" stroke="none" 
	d="
M151.989273,97.829918 
	C156.052734,94.923210 160.116211,92.016510 164.445435,89.360306 
	C163.732697,91.682869 162.754181,93.754936 161.775665,95.826996 
	C161.775665,95.826996 161.398834,95.890381 160.866669,95.949295 
	C159.203415,96.656944 158.072342,97.305687 156.941269,97.954430 
	C156.164627,98.229752 155.388000,98.505066 153.991974,98.883972 
	C152.915176,98.958290 152.457764,98.929001 151.999344,98.632248 
	C151.995316,98.186493 151.992294,98.008209 151.989273,97.829918 
z"/>
<path fill="#F5B723" opacity="1.000000" stroke="none" 
	d="
M151.615997,97.860245 
	C151.992294,98.008209 151.995316,98.186493 152.001236,98.932739 
	C152.007339,99.700363 152.010544,99.900032 152.013733,100.099709 
	C150.995865,100.339531 149.977997,100.579353 148.686737,100.943939 
	C148.290680,101.293289 148.167999,101.517883 147.426300,101.781891 
	C146.280869,101.633804 145.754471,101.446312 144.815125,101.208237 
	C143.573639,101.058510 142.745087,100.959366 141.916534,100.860222 
	C141.934555,100.436234 141.952560,100.012253 141.985535,99.269424 
	C142.742783,98.947289 143.485077,98.943993 144.949219,98.926819 
	C146.780014,98.601570 147.888931,98.290199 148.997864,97.978828 
	C149.746140,97.949417 150.494431,97.919998 151.615997,97.860245 
z"/>
<path fill="#EAA712" opacity="1.000000" stroke="none" 
	d="
M162.126923,95.751549 
	C162.754181,93.754936 163.732697,91.682869 164.778793,89.271660 
	C165.237076,88.835060 165.627762,88.737610 166.309158,88.571785 
	C166.863174,91.835098 165.864014,94.441330 162.126923,95.751549 
z"/>
<path fill="#EAA712" opacity="1.000000" stroke="none" 
	d="
M157.205475,98.051392 
	C158.072342,97.305687 159.203415,96.656944 160.679871,95.989517 
	C159.840073,96.696671 158.654877,97.422516 157.205475,98.051392 
z"/>
<path fill="#EAA712" opacity="1.000000" stroke="none" 
	d="
M152.221481,100.135941 
	C152.010544,99.900032 152.007339,99.700363 152.002258,99.200211 
	C152.457764,98.929001 152.915176,98.958290 153.715179,99.022362 
	C153.514923,99.428825 152.972076,99.800499 152.221481,100.135941 
z"/>
<path fill="#DD920A" opacity="1.000000" stroke="none" 
	d="
M128.912689,155.192993 
	C128.357269,155.593704 127.393791,155.879837 126.041443,156.166107 
	C125.710281,155.964828 125.768005,155.763382 125.907227,155.258347 
	C126.827362,154.995972 127.665993,155.037170 128.912689,155.192993 
z"/>
<path fill="#EAA712" opacity="1.000000" stroke="none" 
	d="
M141.461990,100.880768 
	C142.745087,100.959366 143.573639,101.058510 144.756592,101.502197 
	C145.003693,102.444336 144.896362,103.041939 144.789047,103.639534 
	C144.095078,103.746849 143.401093,103.854164 141.898102,103.993805 
	C136.102707,103.898529 131.116302,103.770943 125.865677,103.417648 
	C121.045044,102.068253 116.488640,100.944550 112.300598,99.690445 
	C118.127693,100.009438 123.586449,100.458839 129.045197,100.908241 
	C133.032608,100.905930 137.020035,100.903618 141.461990,100.880768 
z"/>
<path fill="#B5610D" opacity="1.000000" stroke="none" 
	d="
M126.129913,103.643356 
	C131.116302,103.770943 136.102707,103.898529 141.555908,104.072548 
	C142.026184,104.486206 142.029648,104.853447 142.032806,105.496391 
	C138.690567,105.787697 135.348633,105.803291 131.407333,105.745071 
	C130.481400,105.591110 130.167892,105.626160 129.867447,105.776413 
	C129.867447,105.776413 129.384064,105.861687 129.151459,105.942734 
	C128.918869,106.023788 128.552673,105.897072 127.987297,105.707245 
	C125.268578,105.241104 123.115227,104.964783 120.962570,104.545044 
	C120.963249,104.401627 120.973534,104.114967 121.403152,104.074203 
	C123.265160,103.903419 124.697533,103.773392 126.129913,103.643356 
z"/>
<path fill="#D78909" opacity="1.000000" stroke="none" 
	d="
M145.069458,103.625465 
	C144.896362,103.041939 145.003693,102.444336 145.169540,101.552780 
	C145.754471,101.446312 146.280869,101.633804 147.164291,102.062439 
	C146.797501,102.739525 146.073700,103.175461 145.069458,103.625465 
z"/>
<path fill="#DD920A" opacity="1.000000" stroke="none" 
	d="
M109.224136,129.677963 
	C109.001465,129.984055 108.821304,129.993973 108.116669,129.794006 
	C106.400070,127.717430 105.207947,125.850739 104.015823,123.984039 
	C103.953514,122.916382 103.891190,121.848717 103.775780,120.382416 
	C103.722687,119.983765 103.902878,120.019249 104.227386,120.020905 
	C104.551888,120.022568 105.021149,119.999390 105.021149,119.999390 
	C105.453789,119.998314 105.886421,119.997246 106.812912,120.235855 
	C107.864799,121.280258 108.422829,122.084984 108.980850,122.889709 
	C109.076111,125.053734 109.171371,127.217766 109.224136,129.677963 
z"/>
<path fill="#F0B01B" opacity="1.000000" stroke="none" 
	d="
M103.895798,124.287666 
	C105.207947,125.850739 106.400070,127.717430 107.846306,129.806671 
	C108.073402,131.088593 108.046379,132.147980 108.012848,133.605347 
	C107.527588,134.571945 107.048828,135.140564 106.363258,135.897888 
	C105.362892,132.254852 104.569336,128.423065 103.895798,124.287666 
z"/>
<path fill="#E39C0B" opacity="1.000000" stroke="none" 
	d="
M102.146072,103.306335 
	C103.168373,105.096581 104.180824,107.273239 105.076431,109.737961 
	C104.018463,107.914925 103.077332,105.803833 102.146072,103.306335 
z"/>
<path fill="#E39C0B" opacity="1.000000" stroke="none" 
	d="
M105.030891,119.795120 
	C105.021149,119.999390 104.551888,120.022568 104.318153,120.034805 
	C104.080215,119.576103 104.076012,119.105164 104.092117,118.281189 
	C104.421837,118.482384 104.731239,119.036613 105.030891,119.795120 
z"/>
<path fill="#F5B723" opacity="1.000000" stroke="none" 
	d="
M107.098442,117.979996 
	C107.335571,115.670441 107.572701,113.360886 108.345139,110.622719 
	C109.896156,110.053024 110.911865,109.911942 111.887177,110.123672 
	C111.079399,115.083076 114.243217,115.756935 117.556847,115.926758 
	C122.997498,116.205605 126.574432,118.674377 127.761505,124.052017 
	C127.527985,124.075394 127.059532,124.107246 126.757584,123.901276 
	C123.722282,122.829315 120.861397,120.980438 118.283798,121.314880 
	C113.791794,121.897728 110.351250,120.687798 107.098442,117.979996 
z"/>
<path fill="#F5B723" opacity="1.000000" stroke="none" 
	d="
M128.866272,100.628036 
	C123.586449,100.458839 118.127693,100.009438 111.926132,99.754349 
	C110.685890,100.058083 110.188477,100.167503 109.399155,100.152573 
	C108.123482,99.235809 107.139702,98.443398 106.155930,97.650978 
	C105.904922,96.619186 105.653915,95.587387 105.389832,94.236847 
	C107.590279,94.271408 109.916389,95.242889 111.996552,94.864021 
	C118.676270,93.647415 123.852707,96.316406 128.866272,100.628036 
z"/>
<path fill="#EDAB17" opacity="1.000000" stroke="none" 
	d="
M107.071381,118.314819 
	C110.351250,120.687798 113.791794,121.897728 118.283798,121.314880 
	C120.861397,120.980438 123.722282,122.829315 126.569992,124.074738 
	C126.433807,124.688400 126.183266,124.922638 125.473770,125.128571 
	C120.980827,125.124557 116.946838,125.148849 112.912849,125.173141 
	C111.791946,124.522675 110.671043,123.872215 109.265503,123.055733 
	C108.422829,122.084984 107.864799,121.280258 107.137390,120.233246 
	C106.993439,119.543854 107.018883,119.096756 107.071381,118.314819 
z"/>
<path fill="#AD5A0E" opacity="1.000000" stroke="none" 
	d="
M106.019447,97.975380 
	C107.139702,98.443398 108.123482,99.235809 109.623917,100.421432 
	C113.751556,101.914749 117.362549,103.014854 120.973534,104.114967 
	C120.973534,104.114967 120.963249,104.401627 120.617737,104.609131 
	C119.816040,104.917244 119.359848,105.017860 118.564041,105.112701 
	C117.547180,105.145157 116.869926,105.183388 115.809082,105.181274 
	C113.280685,106.062721 111.135895,106.984520 108.991104,107.906311 
	C107.955055,104.704140 106.919006,101.501961 106.019447,97.975380 
z"/>
<path fill="#DD920A" opacity="1.000000" stroke="none" 
	d="
M108.876137,108.209976 
	C111.135895,106.984520 113.280685,106.062721 115.692230,105.453857 
	C115.612686,106.473549 115.266388,107.180298 114.642548,107.996132 
	C113.552521,108.660423 112.740044,109.215637 111.927567,109.770859 
	C110.911865,109.911942 109.896156,110.053024 108.505127,110.283340 
	C108.340263,109.752930 108.550720,109.133286 108.876137,108.209976 
z"/>
<path fill="#FFD04A" opacity="1.000000" stroke="none" 
	d="
M134.005585,141.526398 
	C132.286591,139.896118 130.927094,138.295517 129.567596,136.694901 
	C131.328400,135.799042 133.043457,134.260101 134.858795,134.130951 
	C139.806320,133.778992 144.822327,133.732300 149.756210,134.176010 
	C151.674210,134.348511 153.444809,136.160233 155.282547,137.225250 
	C153.588791,138.737915 152.008896,141.364716 150.179657,141.551651 
	C144.962463,142.084824 139.643814,141.625137 134.005585,141.526398 
z"/>
<path fill="#F9BF2D" opacity="1.000000" stroke="none" 
	d="
M111.887177,110.123665 
	C112.740044,109.215637 113.552521,108.660423 114.968552,108.102409 
	C118.385307,107.467979 121.198517,106.836349 124.393837,106.189438 
	C125.539505,106.207199 126.303055,106.240257 127.066605,106.273315 
	C123.952805,112.045563 124.721924,115.683830 129.751602,120.983826 
	C130.959503,122.256653 131.482559,124.179398 132.287170,126.089630 
	C131.821060,126.541748 131.388336,126.707474 130.514771,126.592209 
	C129.380951,125.550362 128.687988,124.789505 127.995018,124.028641 
	C126.574432,118.674377 122.997498,116.205605 117.556847,115.926758 
	C114.243217,115.756935 111.079399,115.083076 111.887177,110.123665 
z"/>
<path fill="#D08009" opacity="1.000000" stroke="none" 
	d="
M113.167175,125.431236 
	C116.946838,125.148849 120.980827,125.124557 125.542252,125.309273 
	C126.167122,126.136673 126.264557,126.755074 126.361992,127.373466 
	C124.862396,127.357910 123.362801,127.342354 121.493095,127.286446 
	C118.555824,126.727173 115.988655,126.208252 113.167175,125.431236 
z"/>
<path fill="#E1980C" opacity="1.000000" stroke="none" 
	d="
M126.685974,127.431236 
	C126.264557,126.755074 126.167122,126.136673 126.001205,125.337578 
	C126.183266,124.922638 126.433807,124.688400 126.871941,124.280701 
	C127.059532,124.107246 127.527985,124.075394 127.761505,124.052017 
	C128.687988,124.789505 129.380951,125.550362 130.167328,126.619362 
	C129.177124,127.114677 128.093536,127.301842 126.685974,127.431236 
z"/>
<path fill="#FBC232" opacity="1.000000" stroke="none" 
	d="
M148.726196,97.861595 
	C147.888931,98.290199 146.780014,98.601570 145.320374,98.923927 
	C146.131302,98.538063 147.292923,98.141212 148.726196,97.861595 
z"/>
<path fill="#FFD765" opacity="1.000000" stroke="none" 
	d="
M154.466766,78.488846 
	C154.443008,78.496651 154.490509,78.481041 154.466766,78.488846 
z"/>
<path fill="#FFD55A" opacity="1.000000" stroke="none" 
	d="
M141.067429,107.260651 
	C145.085678,107.194962 149.103928,107.129265 153.590073,107.077408 
	C156.480698,110.277985 155.557983,112.054878 151.835175,113.180214 
	C144.535034,115.386963 137.228760,116.146172 129.395294,114.075813 
	C129.021286,113.983444 129.004074,113.998756 129.004333,113.591705 
	C128.970459,112.111313 128.936340,111.037979 128.902222,109.964645 
	C128.946289,109.302048 128.990356,108.639442 129.051239,107.653732 
	C132.388733,107.289482 135.709457,107.248337 139.560287,107.310120 
	C140.416077,107.362244 140.741760,107.311447 141.067429,107.260651 
z"/>
<path fill="#DD920A" opacity="1.000000" stroke="none" 
	d="
M127.347549,106.167549 
	C126.303055,106.240257 125.539505,106.207199 124.021896,106.134430 
	C121.813110,105.769295 120.358383,105.443886 118.903656,105.118469 
	C119.359848,105.017860 119.816040,104.917244 120.617058,104.752548 
	C123.115227,104.964783 125.268578,105.241104 127.798248,105.664841 
	C127.992546,105.895432 127.810524,105.978607 127.347549,106.167549 
z"/>
<path fill="#FFD04A" opacity="1.000000" stroke="none" 
	d="
M128.692047,110.132782 
	C128.936340,111.037979 128.970459,112.111313 129.010803,113.586777 
	C128.838654,112.759583 128.660263,111.530243 128.692047,110.132782 
z"/>
<path fill="#FFD04A" opacity="1.000000" stroke="none" 
	d="
M140.784927,107.245987 
	C140.741760,107.311447 140.416077,107.362244 140.013580,107.326622 
	C140.125290,107.237236 140.313858,107.234276 140.784927,107.245987 
z"/>
<path fill="#DD920A" opacity="1.000000" stroke="none" 
	d="
M130.175583,105.805954 
	C130.167892,105.626160 130.481400,105.591110 130.955017,105.738312 
	C130.895966,105.815392 130.689850,105.825439 130.175583,105.805954 
z"/>
<path fill="#D78909" opacity="1.000000" stroke="none" 
	d="
M121.403152,104.074203 
	C117.362549,103.014854 113.751556,101.914749 109.915817,100.545776 
	C110.188477,100.167503 110.685890,100.058083 111.557777,99.884750 
	C116.488640,100.944550 121.045044,102.068253 125.865677,103.417648 
	C124.697533,103.773392 123.265160,103.903419 121.403152,104.074203 
z"/>
<path fill="#F5B723" opacity="1.000000" stroke="none" 
	d="
M118.564041,105.112701 
	C120.358383,105.443886 121.813110,105.769295 123.639778,106.149712 
	C121.198517,106.836349 118.385307,107.467979 115.246094,107.993332 
	C115.266388,107.180298 115.612686,106.473549 116.075829,105.494202 
	C116.869926,105.183388 117.547180,105.145157 118.564041,105.112701 
z"/>
</svg>